<?xml version="1.0" encoding="UTF-8" standalone="no"?>
<!-- Created with Inkscape (http://www.inkscape.org/) -->

<svg
   xmlns:dc="http://purl.org/dc/elements/1.1/"
   xmlns:cc="http://creativecommons.org/ns#"
   xmlns:rdf="http://www.w3.org/1999/02/22-rdf-syntax-ns#"
   xmlns:svg="http://www.w3.org/2000/svg"
   xmlns="http://www.w3.org/2000/svg"
   xmlns:sodipodi="http://sodipodi.sourceforge.net/DTD/sodipodi-0.dtd"
   xmlns:inkscape="http://www.inkscape.org/namespaces/inkscape"
   width="239.74847mm"
   height="72.445862mm"
   viewBox="0 0 239.74847 72.445862"
   version="1.1"
   id="svg8"
   inkscape:version="0.92.4 (5da689c313, 2019-01-14)"
   sodipodi:docname="logo2.svg"
   inkscape:export-filename="C:\Users\Fredrik\OneDrive - UiT Office 365\Nettsted\moderne\logo.png"
   inkscape:export-xdpi="111"
   inkscape:export-ydpi="111">
  <defs
     id="defs2" />
  <sodipodi:namedview
     id="base"
     pagecolor="#ffffff"
     bordercolor="#666666"
     borderopacity="1.0"
     inkscape:pageopacity="0.0"
     inkscape:pageshadow="2"
     inkscape:zoom="0.49497475"
     inkscape:cx="423.50765"
     inkscape:cy="100.18404"
     inkscape:document-units="mm"
     inkscape:current-layer="layer1"
     showgrid="false"
     showguides="true"
     inkscape:window-width="1366"
     inkscape:window-height="705"
     inkscape:window-x="-8"
     inkscape:window-y="-8"
     inkscape:window-maximized="1" />
  <metadata
     id="metadata5">
    <rdf:RDF>
      <cc:Work
         rdf:about="">
        <dc:format>image/svg+xml</dc:format>
        <dc:type
           rdf:resource="http://purl.org/dc/dcmitype/StillImage" />
        <dc:title />
      </cc:Work>
    </rdf:RDF>
  </metadata>
  <g
     inkscape:label="Layer 1"
     inkscape:groupmode="layer"
     id="layer1"
     transform="translate(31.35462,-5.9579011)"
     style="display:inline">
    <path
       style="display:inline;fill:#99a3a3;fill-opacity:1;stroke:none;stroke-width:1.04211009;stroke-linecap:butt;stroke-linejoin:miter;stroke-miterlimit:4;stroke-dasharray:none;stroke-opacity:1"
       d="m 177.49604,78.403763 c 0,0 24.61555,-10.121619 18.29829,-30.86263 -6.31727,-20.741 -37.30361,-33.38322 -84.1975,-16.30138 -42.751724,15.57298 -47.427694,1.206131 -47.427694,1.206131 0,0 3.80126,18.580069 59.549104,2.79232 50.97379,-14.435731 82.75011,21.926759 53.7778,43.165559 z"
       id="path6299-6-7-9"
       inkscape:connector-curvature="0"
       sodipodi:nodetypes="csscsc" />
    <path
       style="display:inline;fill:#99a3a3;fill-opacity:1;stroke:none;stroke-width:1.37543917;stroke-linecap:butt;stroke-linejoin:miter;stroke-miterlimit:4;stroke-dasharray:none;stroke-opacity:1"
       d="m 177.49604,78.403763 c 0,0 37.09446,-15.87374 29.99476,-42.597139 C 201.32396,12.594533 156.55714,-7.6158439 93.577206,17.619593 39.600816,39.247404 3.91644,28.748483 3.91644,28.748483 c 0,0 29.912026,13.97667 106.21876,-7.60221 71.3075,-20.1651349 113.94621,29.621409 67.36084,57.25749 z"
       id="path6299-6-7-8-8"
       inkscape:connector-curvature="0"
       sodipodi:nodetypes="csscsc" />
    <path
       style="display:inline;fill:#99a3a3;fill-opacity:1;stroke:none;stroke-width:0.67163074;stroke-linecap:butt;stroke-linejoin:miter;stroke-miterlimit:4;stroke-dasharray:none;stroke-opacity:1"
       d="m 177.49604,78.403763 c 0,0 14.30856,-7.23266 10.63645,-22.053669 -3.67211,-14.821011 -21.68387,-23.85482 -48.94239,-11.648562 -24.85074,11.128061 -27.56879,0.861873 -27.56879,0.861873 0,0 2.20959,13.27685 34.61473,1.995318 29.63008,-10.315408 48.10104,15.668321 31.26,30.84504 z"
       id="path6299-6-7-0-0"
       inkscape:connector-curvature="0"
       sodipodi:nodetypes="csscsc" />
    <path
       style="display:inline;fill:#7f1734;fill-opacity:1;stroke:none;stroke-width:1.04211009;stroke-linecap:butt;stroke-linejoin:miter;stroke-miterlimit:4;stroke-dasharray:none;stroke-opacity:1"
       d="m 177.49604,78.403763 c 0,0 -24.61555,-10.121619 -18.29829,-30.86263 6.31727,-20.741 37.30361,-33.38322 84.19751,-16.30138 42.75171,15.57298 47.42769,1.206131 47.42769,1.206131 0,0 -3.80126,18.580069 -59.5491,2.79232 -50.9738,-14.435731 -82.75012,21.926759 -53.77781,43.165559 z"
       id="path6299-6-7-9-9"
       inkscape:connector-curvature="0"
       sodipodi:nodetypes="csscsc" />
    <path
       style="display:inline;fill:#7f1734;fill-opacity:1;stroke:none;stroke-width:1.37543917;stroke-linecap:butt;stroke-linejoin:miter;stroke-miterlimit:4;stroke-dasharray:none;stroke-opacity:1"
       d="m 177.49604,78.403763 c 0,0 -37.09446,-15.87374 -29.99476,-42.597139 6.16684,-23.212091 50.93366,-43.422469 113.9136,-18.187031 53.97639,21.627811 89.66077,11.12889 89.66077,11.12889 0,0 -29.91203,13.97667 -106.21876,-7.60221 -71.30751,-20.165135 -113.94622,29.621409 -67.36085,57.25749 z"
       id="path6299-6-7-8-8-3"
       inkscape:connector-curvature="0"
       sodipodi:nodetypes="csscsc" />
    <path
       style="display:inline;fill:#7f1734;fill-opacity:1;stroke:none;stroke-width:0.67163074;stroke-linecap:butt;stroke-linejoin:miter;stroke-miterlimit:4;stroke-dasharray:none;stroke-opacity:1"
       d="m 177.49604,78.403763 c 0,0 -14.30856,-7.23266 -10.63645,-22.053669 3.67211,-14.821011 21.68387,-23.85482 48.94239,-11.648562 24.85074,11.128061 27.5688,0.861873 27.5688,0.861873 0,0 -2.20959,13.27685 -34.61474,1.995318 -29.63008,-10.315408 -48.10104,15.668321 -31.26,30.84504 z"
       id="path6299-6-7-0-0-9"
       inkscape:connector-curvature="0"
       sodipodi:nodetypes="csscsc" />
    <path
       style="display:inline;fill:#99a3a3;fill-opacity:1;stroke:none;stroke-width:1.37543917;stroke-linecap:butt;stroke-linejoin:miter;stroke-miterlimit:4;stroke-dasharray:none;stroke-opacity:1"
       d="m 78.7519,39.042468 c 0,0 37.09446,15.87374 29.99476,42.59714 C 102.57982,104.8517 57.813001,125.06207 -5.1669329,99.826638 -59.143325,78.198824 -94.827705,88.697748 -94.827705,88.697748 c 0,0 29.91203,-13.976673 106.218767,7.60221 C 82.698563,116.46509 125.33727,66.678547 78.7519,39.042468 Z"
       id="path6299-6-7-8-8-8"
       inkscape:connector-curvature="0"
       sodipodi:nodetypes="csscsc" />
    <path
       style="display:inline;fill:#7f1734;fill-opacity:1;stroke:none;stroke-width:1.37543917;stroke-linecap:butt;stroke-linejoin:miter;stroke-miterlimit:4;stroke-dasharray:none;stroke-opacity:1"
       d="m 3.916436,128.05904 c 0,0 -37.09446,-15.87374 -29.99476,-42.597137 6.16684,-23.21209 50.801082,-43.089035 113.913601,-18.18703 12.816883,5.057097 89.660763,11.12889 89.660763,11.12889 0,0 -81.227759,1.68227 -106.218753,-7.60221 C 1.8122981,44.994405 -42.668928,100.42296 3.916436,128.05904 Z"
       id="path6299-6-7-8-8-3-9"
       inkscape:connector-curvature="0"
       sodipodi:nodetypes="csscsc" />
  </g>
  <g
     inkscape:groupmode="layer"
     id="layer3"
     inkscape:label="Layer 3">
    <rect
       style="opacity:1;fill:#7f1734;fill-opacity:1;stroke:none;stroke-width:1.63836491;stroke-linejoin:round;stroke-miterlimit:4;stroke-dasharray:none;stroke-dashoffset:0;stroke-opacity:1"
       id="rect948"
       width="98.106026"
       height="70.681549"
       x="4.7035041"
       y="-81.39045" />
    <rect
       style="opacity:1;fill:#99a3a3;fill-opacity:1;stroke:none;stroke-width:1.7444185;stroke-linejoin:round;stroke-miterlimit:4;stroke-dasharray:none;stroke-dashoffset:0;stroke-opacity:1"
       id="rect950"
       width="98.106003"
       height="75.217262"
       x="102.57328"
       y="-83.658302" />
    <ellipse
       style="opacity:1;fill:#99a3a3;fill-opacity:1;stroke:none;stroke-width:1.27491343;stroke-linejoin:round;stroke-miterlimit:4;stroke-dasharray:none;stroke-dashoffset:0;stroke-opacity:1"
       id="path970"
       cx="203.67047"
       cy="-46.11124"
       rx="32.684303"
       ry="37.608631" />
    <ellipse
       style="opacity:1;fill:#7f1734;fill-opacity:1;stroke:none;stroke-width:1.17592847;stroke-linejoin:round;stroke-miterlimit:4;stroke-dasharray:none;stroke-dashoffset:0;stroke-opacity:1"
       id="path970-6"
       cx="5.8796067"
       cy="-46.092331"
       rx="29.590231"
       ry="35.341" />
  </g>
  <g
     inkscape:groupmode="layer"
     id="layer2"
     inkscape:label="Layer 2"
     transform="translate(31.35462,-5.9579011)"
     style="display:inline">
    <g
       style="display:inline"
       transform="translate(-37.810451,-61.104443)"
       id="layer1-1-5"
       inkscape:label="Layer 1">
      <text
         xml:space="preserve"
         style="font-style:normal;font-variant:normal;font-weight:normal;font-stretch:normal;font-size:5.64444447px;line-height:1.25;font-family:HelveticaNeue;-inkscape-font-specification:HelveticaNeue;letter-spacing:0px;word-spacing:0px;fill:#99a3a3;fill-opacity:1;stroke:none;stroke-width:0.26458332;"
         x="-3.8251221"
         y="38.966541"
         id="text954"><tspan
           sodipodi:role="line"
           id="tspan952"
           x="-3.8251221"
           y="38.966541"
           style="font-size:50.79999924px;fill:#99a3a3;fill-opacity:1;stroke-width:0.26458332;">Fred</tspan></text>
      <text
         xml:space="preserve"
         style="font-style:normal;font-variant:normal;font-weight:normal;font-stretch:normal;font-size:5.64444447px;line-height:1.25;font-family:HelveticaNeue;-inkscape-font-specification:HelveticaNeue;letter-spacing:0px;word-spacing:0px;fill:#7f1734;fill-opacity:1;stroke:none;stroke-width:0.26458332"
         x="110.85284"
         y="38.966541"
         id="text958"><tspan
           sodipodi:role="line"
           id="tspan956"
           x="110.85284"
           y="38.966541"
           style="font-size:50.79999924px;fill:#7f1734;fill-opacity:1;stroke-width:0.26458332">Med</tspan></text>
    </g>
    <g
       style="display:inline"
       transform="matrix(0.50856818,0,0,0.50856818,-18.818649,68.163502)"
       id="layer1-1-5-0"
       inkscape:label="Layer 1">
      <text
         xml:space="preserve"
         style="font-style:normal;font-variant:normal;font-weight:normal;font-stretch:normal;font-size:5.64444447px;line-height:1.25;font-family:HelveticaNeue;-inkscape-font-specification:HelveticaNeue;letter-spacing:0px;word-spacing:0px;fill:#99a3a3;fill-opacity:1;stroke:none;stroke-width:0.26458332"
         x="-3.8251221"
         y="38.966541"
         id="text954-1"><tspan
           sodipodi:role="line"
           id="tspan952-4"
           x="-3.8251221"
           y="38.966541"
           style="font-size:50.79999924px;fill:#99a3a3;fill-opacity:1;stroke-width:0.26458332">Fred</tspan></text>
      <text
         xml:space="preserve"
         style="font-style:normal;font-variant:normal;font-weight:normal;font-stretch:normal;font-size:5.64444447px;line-height:1.25;font-family:HelveticaNeue;-inkscape-font-specification:HelveticaNeue;letter-spacing:0px;word-spacing:0px;fill:#7f1734;fill-opacity:1;stroke:none;stroke-width:0.26458332"
         x="100.34216"
         y="74.702812"
         id="text958-9"><tspan
           sodipodi:role="line"
           id="tspan956-1"
           x="100.34216"
           y="74.702812"
           style="font-size:50.79999924px;fill:#7f1734;fill-opacity:1;stroke-width:0.26458332">Med</tspan></text>
    </g>
  </g>
</svg>
